
<svg aria-hidden="true" style="position:absolute;width:0;height:0;overflow:hidden" xmlns="http://www.w3.org/2000/svg">
  <defs>
    <symbol id="icon-close" viewBox="0 0 32 32">
      <path d="m16 14.115 6.6-6.6 1.886 1.886-6.6 6.6 6.6 6.6-1.886 1.886-6.6-6.6-6.6 6.6-1.886-1.886 6.6-6.6-6.6-6.6L9.4 7.515l6.6 6.6z"/>
    </symbol>
    <symbol id="icon-message" viewBox="0 0 32 32">
      <path d="M2.667 11.992A7.988 7.988 0 0 1 10.668 4h10.665c4.419 0 8.001 3.593 8.001 7.992V28H10.668c-4.419 0-8.001-3.593-8.001-7.992v-8.017zm24 13.341V11.991c0-2.931-2.393-5.325-5.334-5.325H10.668a5.32 5.32 0 0 0-5.334 5.325v8.017c0 2.931 2.393 5.325 5.334 5.325h15.999zm-8-10.666h2.667v2.667h-2.667v-2.667zm-8 0h2.667v2.667h-2.667v-2.667z"/>
    </symbol>
    <symbol id="icon-phone" viewBox="0 0 32 32">
      <path d="M12.487 14.243a14.076 14.076 0 0 0 5.27 5.27l1.179-1.651a1.333 1.333 0 0 1 1.724-.395 15.24 15.24 0 0 0 6.111 1.819 1.334 1.334 0 0 1 1.228 1.329v5.95c0 .684-.517 1.256-1.197 1.326-.707.073-1.419.109-2.136.109C13.252 28 3.999 18.747 3.999 7.333c0-.717.037-1.43.109-2.136C4.178 4.517 4.751 4 5.434 4h5.95c.696 0 1.274.535 1.329 1.228a15.224 15.224 0 0 0 1.819 6.111 1.333 1.333 0 0 1-.395 1.724l-1.651 1.179zm-3.361-.876 2.533-1.809a17.893 17.893 0 0 1-1.463-4.891H6.678c-.008.222-.012.444-.012.667 0 9.941 8.059 18 18 18 .223 0 .445-.004.667-.012v-3.518a17.859 17.859 0 0 1-4.891-1.463l-1.809 2.533a16.516 16.516 0 0 1-2.117-1l-.077-.044a16.743 16.743 0 0 1-6.27-6.27l-.044-.077a16.652 16.652 0 0 1-1-2.117z"/>
    </symbol>
    <symbol id="icon-user" viewBox="0 0 32 32">
      <path d="M26.667 29.333H24v-2.667a4 4 0 0 0-4-4h-8a4 4 0 0 0-4 4v2.667H5.333v-2.667A6.667 6.667 0 0 1 12 19.999h8a6.667 6.667 0 0 1 6.667 6.667v2.667zM16 17.333a8 8 0 1 1 0-16 8 8 0 0 1 0 16zm0-2.666A5.333 5.333 0 1 0 16 4a5.333 5.333 0 0 0 0 10.667z"/>
    </symbol>
    <symbol id="icon-mail" viewBox="0 0 32 32">
      <path d="M4 4h24c.736 0 1.333.597 1.333 1.333v21.333c0 .736-.597 1.333-1.333 1.333H4a1.333 1.333 0 0 1-1.333-1.333V5.333C2.667 4.597 3.264 4 4 4zm22.667 5.651-10.571 9.467L5.334 9.622v15.712h21.333V9.651zM6.015 6.667l10.067 8.883 9.919-8.883H6.015z"/>
    </symbol>
    <symbol id="icon-building" viewBox="0 0 32 32">
      <path d="M28 25.333h2.667V28H1.334v-2.667h2.667v-20C4.001 4.597 4.598 4 5.334 4h13.333C19.403 4 20 4.597 20 5.333v20h5.333V14.666h-2.667v-2.667h4c.736 0 1.333.597 1.333 1.333v12zM6.667 6.667v18.667h10.667V6.667H6.667zm2.666 8h5.333v2.667H9.333v-2.667zm0-5.334h5.333V12H9.333V9.333z"/>
    </symbol>
    <symbol id="icon-menu" viewBox="0 0 32 32">
      <path d="M4 5.333h24V8H4V5.333zm0 9.334h24v2.667H4v-2.667zM4 24h24v2.667H4V24z"/>
    </symbol>
    <symbol id="icon-team" viewBox="0 0 32 32">
      <path d="M16 14.667a6.667 6.667 0 0 1 6.667 6.667v8H20v-8a4 4 0 0 0-3.765-3.993L16 17.334a4 4 0 0 0-3.993 3.765l-.007.235v8H9.333v-8A6.667 6.667 0 0 1 16 14.667zm-8.667 4c.372 0 .733.043 1.08.126a7.941 7.941 0 0 0-.402 2.1l-.012.441.001.114a2.022 2.022 0 0 0-.475-.105l-.193-.009a2 2 0 0 0-1.991 1.807l-.009.193v6H2.665v-6a4.667 4.667 0 0 1 4.667-4.667zm17.334 0a4.667 4.667 0 0 1 4.667 4.667v6h-2.667v-6a2 2 0 0 0-1.807-1.991l-.193-.009c-.234 0-.458.04-.666.114v-.114c0-.888-.145-1.741-.411-2.539a4.552 4.552 0 0 1 1.078-.127zm-17.334-8a3.333 3.333 0 1 1 0 6.665 3.333 3.333 0 0 1 0-6.665zm17.334 0a3.333 3.333 0 1 1 0 6.665 3.333 3.333 0 0 1 0-6.665zM7.333 13.333a.667.667 0 1 0 .001 1.335.667.667 0 0 0-.001-1.335zm17.334 0a.667.667 0 1 0 .001 1.335.667.667 0 0 0-.001-1.335zM16 2.667a5.333 5.333 0 1 1 0 10.667 5.333 5.333 0 0 1 0-10.667zm0 2.666a2.667 2.667 0 1 0 0 5.334 2.667 2.667 0 0 0 0-5.334z"/>
    </symbol>
    <symbol id="icon-statistic" viewBox="0 0 32 32">
      <path d="M4 4h24c.736 0 1.333.597 1.333 1.333v21.333c0 .736-.597 1.333-1.333 1.333H4a1.333 1.333 0 0 1-1.333-1.333V5.333C2.667 4.597 3.264 4 4 4zm1.333 2.667v18.667h21.333V6.667H5.333zm4 10.666H12v5.333H9.333v-5.333zm5.334-8h2.667v13.333h-2.667V9.333zm5.333 4h2.667v9.333H20v-9.333z"/>
    </symbol>
    <symbol id="icon-calendar" viewBox="0 0 32 32">

   <path d="M12 1.333V4h8V1.333h2.667V4H28c.736 0 1.333.597 1.333 1.333v21.333c0 .736-.597 1.333-1.333 1.333H4a1.333 1.333 0 0 1-1.333-1.333V5.333C2.667 4.597 3.264 4 4 4h5.333V1.333H12zm14.667 13.334H5.334v10.667h21.333V14.667zm-17.334-8h-4V12h21.333V6.667h-4v2.667h-2.667V6.667h-8v2.667H9.332V6.667z"/>
    </symbol>
    <symbol id="icon-hotel" viewBox="0 0 32 32">
   <path d="M29.333 28H2.666v-2.667h1.333v-20C3.999 4.597 4.596 4 5.332 4h18.667c.736 0 1.333.597 1.333 1.333V12h2.667v13.333h1.333V28zm-6.666-2.667h2.667V14.666h-8v10.667h2.667v-8h2.667v8zm0-13.333V6.667h-16v18.667h8V12.001h8zM9.333 14.667H12v2.667H9.333v-2.667zm0 5.333H12v2.667H9.333V20zm0-10.667H12V12H9.333V9.333z"/>
    </symbol>
    <symbol id="icon-truck" viewBox="0 0 32 32">
      <path d="M11.953 24a4.667 4.667 0 0 1-9.238 0H1.334V8c0-.736.597-1.333 1.333-1.333h18.667c.736 0 1.333.597 1.333 1.333v2.667h4l4 5.408v7.926h-2.714a4.668 4.668 0 0 1-9.238 0h-6.761zM20 9.333H4v10.734a4.667 4.667 0 0 1 7.551 1.266h7.565c.224-.471.524-.898.884-1.266V9.333zm2.667 8H28v-.38l-2.678-3.62h-2.656v4zm.666 8a2 2 0 1 0 0-4.001 2 2 0 0 0 0 4.001zm-14-2a2 2 0 1 0-3.999-.001 2 2 0 0 0 3.999.001z"/>
    </symbol>
    <symbol id="icon-bus" viewBox="0 0 32 32">
      <path d="M16 4v2.667H6.667v12h18.667V16h2.667v10.667h-1.333V28c0 .736-.597 1.333-1.333 1.333h-1.333A1.333 1.333 0 0 1 22.669 28v-1.333H9.336V28c0 .736-.597 1.333-1.333 1.333H6.67A1.333 1.333 0 0 1 5.337 28v-1.333H4.004V16H2.671v-5.333h1.333v-4A2.667 2.667 0 0 1 6.671 4h9.333zm-4 17.333H6.667V24H12v-2.667zm13.333 0H20V24h5.333v-2.667zm-.666-20a6 6 0 1 1 0 12 6 6 0 0 1 0-12zm-.001 6.889c-.655 0-1.254.236-1.718.627l-.168.154 1.886 1.886 1.884-1.887a2.66 2.66 0 0 0-1.884-.78zm0-3.555a6.199 6.199 0 0 0-4.17 1.604l-.231.22 1.258 1.256a4.43 4.43 0 0 1 3.143-1.302c1.125 0 2.152.418 2.935 1.107l.207.195 1.257-1.257a6.203 6.203 0 0 0-4.4-1.822z"/>
    </symbol>
  </defs>
</svg>